<?xml version="1.0" encoding="UTF-8" standalone="no"?>
<!-- Created with Inkscape (http://www.inkscape.org/) -->

<svg
   version="1.1"
   id="svg2"
   xml:space="preserve"
   width="79"
   height="112"
   viewBox="0 0 793.70135 1122.52"
   sodipodi:docname="국방부 마크_컬러본.ai"
   xmlns:inkscape="http://www.inkscape.org/namespaces/inkscape"
   xmlns:sodipodi="http://sodipodi.sourceforge.net/DTD/sodipodi-0.dtd"
   xmlns="http://www.w3.org/2000/svg"
   xmlns:svg="http://www.w3.org/2000/svg"><defs
     id="defs6"><clipPath
       clipPathUnits="userSpaceOnUse"
       id="clipPath16"><path
         d="M 0,841.89 H 595.276 V 0 H 0 Z"
         id="path14" /></clipPath></defs><sodipodi:namedview
     id="namedview4"
     pagecolor="#ffffff"
     bordercolor="#666666"
     borderopacity="1.0"
     inkscape:pageshadow="2"
     inkscape:pageopacity="0.0"
     inkscape:pagecheckerboard="0" /><g
     id="g8"
     inkscape:groupmode="layer"
     inkscape:label="국방부 마크_컬러본"
     transform="matrix(1.3333333,0,0,-1.3333333,0,1122.52)"><g
       id="g10"><g
         id="g12"
         clip-path="url(#clipPath16)"><g
           id="g18"
           transform="translate(361.9055,358.956)"><path
             d="m 0,0 -0.925,-2.352 c -0.119,-0.303 -12.191,-30.426 -36.342,-43.056 -15.225,-7.962 -22.462,-12.551 -27,-19.176 -4.538,6.624 -11.775,11.214 -27,19.176 -24.151,12.63 -36.223,42.753 -36.342,43.056 l -0.927,2.353 -5.288,-1.833 2.576,16.852 12.506,-11.69 -5.353,-1.943 2.193,-2.853 c 18.974,-24.68 37.308,-29.631 38.079,-29.829 l 3.096,-0.798 3.153,52.819 0.314,5.268 1.911,32.006 0.162,2.707 0.166,2.78 0.088,1.477 4.393,73.604 h -26.139 c -2.616,0 -4.743,2.128 -4.743,4.743 0,2.616 2.127,4.744 4.743,4.744 h 46.785 2.24 2.239 6.446 2.866 4.247 c 0.457,0 0.89,-0.085 1.309,-0.207 1.723,-0.499 3.043,-1.935 3.353,-3.73 0.046,-0.263 0.082,-0.531 0.082,-0.807 0,-0.732 -0.181,-1.418 -0.479,-2.038 -0.54,-1.124 -1.505,-1.995 -2.691,-2.416 -0.495,-0.176 -1.019,-0.289 -1.574,-0.289 h -1.12 -2.955 -7.894 -2.544 -2.444 -9.182 l 4.394,-73.605 0.088,-1.476 0.166,-2.78 0.161,-2.708 1.911,-32.005 0.314,-5.268 3.153,-52.819 3.096,0.798 c 0.771,0.198 19.106,5.149 38.079,29.829 L -4.44,1.387 -9.793,3.33 2.713,15.02 5.289,-1.832 Z m -82.851,20.726 -2.733,-45.785 c -5.444,2.31 -17.369,8.694 -29.893,23.97 l 6.609,2.398 -20.77,19.417 z m 22.024,144.671 c -1.046,-0.537 -2.214,-0.869 -3.468,-0.869 -4.226,0 -7.663,3.439 -7.663,7.664 0,4.226 3.437,7.663 7.663,7.663 3.45,0 6.341,-2.307 7.299,-5.448 -0.68,-0.299 -1.336,-0.666 -1.92,-1.192 -2.249,-2.022 -2.892,-5.138 -1.911,-7.818 m -22.048,6.795 c 0,10.244 8.336,18.58 18.58,18.58 10.245,0 18.581,-8.336 18.581,-18.58 0,-0.866 -0.081,-1.711 -0.196,-2.546 l -0.663,0.738 -2.108,2.345 c -0.458,0.51 -0.996,0.916 -1.563,1.27 -0.462,0.324 -0.937,0.534 -1.411,0.701 -1.171,5.911 -6.389,10.385 -12.64,10.385 -7.109,0 -12.893,-5.784 -12.893,-12.893 0,-7.11 5.784,-12.894 12.893,-12.894 2.417,0 4.655,0.71 6.591,1.872 l 3.798,-4.375 c -2.968,-2.009 -6.544,-3.184 -10.389,-3.184 -10.244,0 -18.58,8.336 -18.58,18.581 m 39.29,-11.705 1.228,-1.366 1.485,-1.652 1.494,-1.662 2.233,-2.484 0.565,-0.629 c -1.957,0.001 -4.311,0.005 -6.441,0.01 -0.418,0.001 -0.844,0.002 -1.239,0.003 l -0.553,0.616 -0.281,0.312 -1.486,1.654 -0.475,0.528 -0.379,0.421 -3.129,3.481 -0.383,0.426 -2.393,2.663 -1.077,1.198 -1.773,1.972 c -0.282,0.313 -0.472,0.674 -0.587,1.053 -0.308,1.017 -0.025,2.176 0.859,2.971 0.132,0.119 0.276,0.222 0.427,0.313 0.48,0.289 1.037,0.431 1.601,0.398 0.752,-0.04 1.442,-0.367 1.939,-0.922 l 0.258,-0.286 1.139,-1.267 2.742,-3.05 0.482,-0.537 3.315,-3.687 z m 10.171,-3.056 c 3.248,0 6.485,-1.324 8.822,-3.924 l 11.705,-13.021 c 2.106,-2.343 3.174,-5.381 3.005,-8.554 -0.043,-0.8 -0.164,-1.583 -0.357,-2.341 l -0.941,1.504 c -1.148,1.834 -2.997,2.943 -4.994,3.253 -0.238,0.766 -0.625,1.493 -1.186,2.117 l -4.638,5.16 c 0.094,0.549 0.153,1.11 0.153,1.686 0,5.345 -4.213,9.712 -9.491,9.985 -0.158,0.222 -0.29,0.461 -0.474,0.666 l -3.006,3.344 c 0.467,0.055 0.933,0.125 1.402,0.125 m 6.787,-22.64 c 1.037,0.638 1.948,1.458 2.69,2.418 l 3.258,-3.625 c -0.166,-0.088 -0.339,-0.147 -0.501,-0.249 -0.912,-0.57 -1.635,-1.322 -2.188,-2.169 z m 3.522,-18.924 c 0.298,-0.015 0.595,-0.023 0.89,-0.023 1.111,0 2.204,0.122 3.272,0.34 l 2.781,-4.445 c -2.79,-4.203 -3.61,-9.634 -1.703,-14.708 l 2.194,-5.837 c -2.071,-0.049 -12.814,-0.684 -19.531,-8.22 L -48.616,69.843 -52.404,133.3 h 7.212 l 10.866,-12.087 c 2.891,-3.216 6.876,-5.114 11.221,-5.346 M 1.103,20.726 -19.666,1.309 -13.058,-1.089 C -25.584,-16.368 -37.511,-22.751 -42.951,-25.06 l -2.733,45.786 z m -1.244,79.01 0.065,0.041 c 0.242,0.152 0.445,0.34 0.663,0.515 L 4.004,91.199 H 0.14 l -2.841,7.561 c 0.896,0.159 1.764,0.478 2.56,0.976 m 19.895,-8.537 c -0.112,0.378 -0.22,0.756 -0.361,1.13 l -6.16,16.39 c -1.52,4.048 -4.54,7.267 -8.503,9.065 -2.687,1.22 -5.582,1.663 -8.43,1.358 l -3.652,5.836 c 1.081,2.052 1.731,4.327 1.858,6.721 0.231,4.345 -1.233,8.509 -4.124,11.725 l -11.706,13.02 c -4.369,4.859 -11.021,6.45 -16.889,4.641 l -3.426,3.811 c 0.743,2.301 1.154,4.751 1.154,7.296 0,13.129 -10.681,23.809 -23.81,23.809 -13.129,0 -23.809,-10.68 -23.809,-23.809 0,-7.686 3.675,-14.513 9.344,-18.869 h -17.919 c -5.52,0 -10.011,-4.492 -10.011,-10.012 0,-5.52 4.491,-10.011 10.011,-10.011 h 20.549 l -3.789,-63.456 -13.414,13.13 c -7.283,8.173 -19.388,8.221 -19.874,8.225 h -119.755 l 0.648,-3.162 c 0.041,-0.2 3.997,-18.48 20.533,-22.288 -0.014,-3.274 0.593,-9.377 4.712,-14.505 3.444,-4.288 8.541,-6.91 15.141,-7.844 1.395,-8.898 7.49,-22.674 23.06,-22.674 h 33.164 l -4.648,-30.395 8.832,3.061 c 3.432,-7.661 15.683,-31.896 37.812,-43.469 15.822,-8.273 21.791,-12.328 25.423,-17.966 l 4.018,-5.695 4.023,5.703 c 3.633,5.635 9.605,9.69 25.418,17.958 22.128,11.573 34.379,35.808 37.812,43.469 l 8.831,-3.061 -4.648,30.395 h 33.164 c 15.571,0 21.666,13.776 23.06,22.674 6.6,0.934 11.697,3.556 15.141,7.845 4.12,5.128 4.727,11.23 4.713,14.504 16.536,3.808 20.491,22.088 20.532,22.288 l 0.648,3.162 z"
             style="fill:#818383;fill-opacity:1;fill-rule:nonzero;stroke:none"
             id="path20" /></g><g
           id="g22"
           transform="translate(330.0498,492.2559)"><path
             d="m 0,0 h -7.426 l 8.224,-9.149 c 2.105,-2.343 5.012,-3.727 8.186,-3.895 0.461,-0.025 0.918,-0.016 1.373,0.011 l -1.966,3.14 C 7.745,-8.86 7.427,-7.724 7.348,-6.586 6.654,-6.302 5.926,-5.857 5.271,-5.129 L 0.632,0.032 C 0.422,0.019 0.213,0 0,0"
             style="fill:#ffffff;fill-opacity:1;fill-rule:nonzero;stroke:none"
             id="path24" /></g><g
           id="g26"
           transform="translate(365.1859,464.4646)"><path
             d="M 0,0 C 0.071,-0.149 0.148,-0.289 0.209,-0.452 L 5.418,-14.31 h 6.425 L 5.841,1.664 c -1.109,2.95 -3.313,5.297 -6.207,6.609 -1.253,0.57 -2.569,0.903 -3.897,1.019 l 3.19,-5.097 C -0.258,2.893 0.077,1.429 0,0"
             style="fill:#ffffff;fill-opacity:1;fill-rule:nonzero;stroke:none"
             id="path28" /></g><g
           id="g30"
           transform="translate(351.8286,460.9726)"><path
             d="M 0,0 -3.428,5.477 C -4.624,2.745 -4.805,-0.434 -3.676,-3.439 l 2.773,-7.379 H 5.523 L 2.309,-2.265 C 1.389,-1.694 0.59,-0.942 0,0"
             style="fill:#ffffff;fill-opacity:1;fill-rule:nonzero;stroke:none"
             id="path32" /></g><g
           id="g34"
           transform="translate(350.5622,482.0288)"><path
             d="M 0,0 -1.224,1.955 -3.562,5.691 C -3.942,6.298 -4.521,6.7 -5.161,6.886 -5.417,6.961 -5.68,7.009 -5.948,7.009 -6.458,7.009 -6.972,6.871 -7.434,6.582 -8.51,5.909 -8.982,4.71 -8.756,3.592 c 0.064,-0.32 0.177,-0.634 0.36,-0.927 l 2.695,-4.306 1.166,-1.863 1.173,-1.875 1.589,-2.538 1.18,-1.886 1.175,-1.877 3.336,-5.331 1.073,-1.714 c 0.395,-0.632 1.018,-1.073 1.754,-1.242 0.185,-0.043 0.372,-0.066 0.559,-0.072 0.547,-0.016 1.087,0.127 1.559,0.422 l 0.07,0.044 c 0.361,0.226 0.646,0.525 0.863,0.862 0.571,0.888 0.625,2.059 0.03,3.012 l -0.895,1.429 -3.376,5.395 -1.208,1.929 -1.189,1.9 -1.963,3.137 z"
             style="fill:#ffffff;fill-opacity:1;fill-rule:nonzero;stroke:none"
             id="path36" /></g><g
           id="g38"
           transform="translate(313.8124,420.0387)"><path
             d="m 0,0 0.757,-12.684 h 108.23 c 6.123,0.519 10.676,2.586 13.534,6.145 2.892,3.6 3.488,7.96 3.553,10.561 H 13.139 C 13.05,4.022 5.695,3.944 0,0"
             style="fill:#ffffff;fill-opacity:1;fill-rule:nonzero;stroke:none"
             id="path40" /></g><g
           id="g42"
           transform="translate(315.9071,384.9496)"><path
             d="m 0,0 h 86.332 c 12.689,0 16.53,11.591 17.642,17.138 H -1.023 Z"
             style="fill:#ffffff;fill-opacity:1;fill-rule:nonzero;stroke:none"
             id="path44" /></g><g
           id="g46"
           transform="translate(380.112,444.8874)"><path
             d="m 0,0 h -2.197 -6.075 -2.201 -2.319 -3.295 -2.346 -2.348 -6.425 -2.347 -2.347 -1.633 c -0.106,0 -10.318,-0.086 -15.992,-6.517 l -0.132,-0.14 -9.924,-9.714 c 3.524,0.801 6.201,0.821 6.429,0.812 h 35.696 5.672 72.188 C 72.427,-14.765 77.563,-5.142 79.458,0 H 2.209 Z"
             style="fill:#ffffff;fill-opacity:1;fill-rule:nonzero;stroke:none"
             id="path48" /></g><g
           id="g50"
           transform="translate(280.3923,402.0876)"><path
             d="m 0,0 -104.99,0.008 c 1.128,-5.543 4.996,-17.146 17.636,-17.146 h 86.331 z"
             style="fill:#ffffff;fill-opacity:1;fill-rule:nonzero;stroke:none"
             id="path52" /></g><g
           id="g54"
           transform="translate(281.464,420.0388)"><path
             d="m 0,0 c -5.695,3.944 -13.049,4.022 -13.137,4.022 h -112.926 c 0.073,-2.621 0.679,-7.023 3.573,-10.599 2.859,-3.536 7.402,-5.59 13.503,-6.107 h 108.23 z"
             style="fill:#ffffff;fill-opacity:1;fill-rule:nonzero;stroke:none"
             id="path56" /></g><g
           id="g58"
           transform="translate(274.7713,428.497)"><path
             d="m 0,0 -10.082,9.874 c -5.674,6.43 -15.886,6.516 -15.988,6.516 h -112.996 c 1.894,-5.139 7.03,-14.764 19.055,-15.559 H -6.446 C -6.203,0.823 -3.523,0.8 0,0"
             style="fill:#ffffff;fill-opacity:1;fill-rule:nonzero;stroke:none"
             id="path60" /></g><g
           id="g62"
           transform="translate(297.6103,518.2541)"><path
             d="m 0,0 c -7.109,0 -12.893,5.784 -12.893,12.894 0,7.109 5.784,12.893 12.893,12.893 6.251,0 11.469,-4.474 12.641,-10.385 0.473,-0.167 0.949,-0.378 1.41,-0.701 0.568,-0.354 1.105,-0.76 1.563,-1.27 l 2.108,-2.345 0.664,-0.738 c 0.115,0.835 0.195,1.68 0.195,2.546 0,10.244 -8.335,18.58 -18.581,18.58 -10.244,0 -18.58,-8.336 -18.58,-18.58 0,-10.245 8.336,-18.581 18.58,-18.581 3.846,0 7.422,1.175 10.389,3.183 L 6.591,1.872 C 4.655,0.71 2.417,0 0,0"
             style="fill:#ffffff;fill-opacity:1;fill-rule:nonzero;stroke:none"
             id="path64" /></g><g
           id="g66"
           transform="translate(330.5692,512.2523)"><path
             d="m 0,0 c 5.278,-0.273 9.492,-4.641 9.492,-9.985 0,-0.576 -0.06,-1.137 -0.154,-1.687 l 4.639,-5.159 c 0.56,-0.624 0.947,-1.351 1.185,-2.117 1.997,-0.31 3.847,-1.419 4.994,-3.253 l 0.942,-1.505 c 0.193,0.758 0.314,1.541 0.356,2.342 0.17,3.173 -0.898,6.211 -3.005,8.554 L 6.744,0.211 C 4.407,2.81 1.17,4.135 -2.078,4.135 -2.547,4.135 -3.013,4.065 -3.48,4.009 L -0.474,0.666 C -0.289,0.46 -0.158,0.222 0,0"
             style="fill:#ffffff;fill-opacity:1;fill-rule:nonzero;stroke:none"
             id="path68" /></g><g
           id="g70"
           transform="translate(352.1129,362.2856)"><path
             d="M 0,0 5.353,-1.943 3.159,-4.796 c -18.973,-24.679 -37.307,-29.63 -38.078,-29.828 l -3.096,-0.798 -3.153,52.818 -0.315,5.268 -1.91,32.006 -0.162,2.707 -0.166,2.78 -0.088,1.477 -4.394,73.604 h 9.182 2.445 2.543 7.895 2.955 1.12 c 0.554,0 1.079,0.114 1.574,0.289 1.186,0.421 2.151,1.292 2.691,2.416 0.298,0.62 0.479,1.306 0.479,2.039 0,0.276 -0.037,0.543 -0.082,0.806 -0.31,1.795 -1.63,3.232 -3.354,3.731 -0.418,0.121 -0.851,0.206 -1.308,0.206 h -4.248 -2.865 -6.446 -2.239 -2.24 -46.785 c -2.616,0 -4.743,-2.128 -4.743,-4.743 0,-2.616 2.127,-4.744 4.743,-4.744 h 26.139 l -4.394,-73.604 -0.088,-1.477 -0.166,-2.78 -0.161,-2.707 -1.911,-32.006 -0.314,-5.268 -3.153,-52.818 -3.096,0.798 c -0.772,0.198 -19.106,5.149 -38.079,29.828 l -2.193,2.853 5.353,1.943 -12.506,11.691 -2.576,-16.853 5.288,1.834 0.926,-2.354 c 0.119,-0.302 12.191,-30.426 36.343,-43.056 15.225,-7.962 22.462,-12.551 26.999,-19.176 4.539,6.625 11.775,11.214 27,19.176 24.152,12.63 36.223,42.753 36.342,43.056 l 0.926,2.352 5.289,-1.832 -2.576,16.853 z"
             style="fill:#ffffff;fill-opacity:1;fill-rule:nonzero;stroke:none"
             id="path72" /></g><g
           id="g74"
           transform="translate(324.7607,512.2786)"><path
             d="m 0,0 -2.233,2.484 -1.494,1.662 -1.485,1.652 -1.228,1.366 -0.429,0.477 -3.315,3.687 -0.483,0.537 -2.741,3.05 -1.139,1.267 -0.258,0.287 c -0.498,0.554 -1.187,0.881 -1.94,0.921 -0.563,0.033 -1.121,-0.109 -1.6,-0.398 -0.151,-0.09 -0.295,-0.193 -0.427,-0.312 -0.884,-0.795 -1.167,-1.955 -0.859,-2.972 0.115,-0.379 0.305,-0.739 0.586,-1.052 l 1.773,-1.972 1.078,-1.199 2.393,-2.662 0.383,-0.426 3.129,-3.481 L -9.91,2.494 -9.435,1.966 -7.949,0.312 -7.668,0 -7.115,-0.615 c 0.395,-0.001 0.82,-0.002 1.239,-0.003 2.13,-0.005 4.484,-0.01 6.441,-0.011 z"
             style="fill:#ffffff;fill-opacity:1;fill-rule:nonzero;stroke:none"
             id="path76" /></g><g
           id="g78"
           transform="translate(297.1267,386.8383)"><path
             d="M 0,0 V 4.654 L 0.001,29.84 -37.62,-22.737 Z"
             style="fill:#f6e600;fill-opacity:1;fill-rule:nonzero;stroke:none"
             id="path80" /></g><g
           id="g82"
           transform="translate(297.1278,419.7896)"><path
             d="M 0,0 V 64.989 L -17.274,24.142 Z"
             style="fill:#f6e600;fill-opacity:1;fill-rule:nonzero;stroke:none"
             id="path84" /></g><g
           id="g86"
           transform="translate(282.2067,413.6789)"><path
             d="M 0,0 13.807,4.555 -47.057,24.638 -14.141,-4.665 Z"
             style="fill:#f6e600;fill-opacity:1;fill-rule:nonzero;stroke:none"
             id="path88" /></g><g
           id="g90"
           transform="translate(298.929,417.2723)"><path
             d="m 0,0 34.472,-48.177 3.144,-4.395 -9.668,43.35 z"
             style="fill:#f6e600;fill-opacity:1;fill-rule:nonzero;stroke:none"
             id="path92" /></g><g
           id="g94"
           transform="translate(298.9287,419.196)"><path
             d="M 0,0 60.872,20.082 17.274,24.142 7.356,10.282 Z"
             style="fill:#f6e600;fill-opacity:1;fill-rule:nonzero;stroke:none"
             id="path96" /></g><g
           id="g98"
           transform="translate(299.2367,418.2341)"><path
             d="M 0,0 27.946,-9.222 60.861,20.079 37.379,12.332 Z"
             style="fill:#e60c22;fill-opacity:1;fill-rule:nonzero;stroke:none"
             id="path100" /></g><g
           id="g102"
           transform="translate(268.3735,408.052)"><path
             d="M 0,0 -9.669,-43.352 27.948,9.22 Z"
             style="fill:#e60c22;fill-opacity:1;fill-rule:nonzero;stroke:none"
             id="path104" /></g><g
           id="g106"
           transform="translate(279.1056,443.2558)"><path
             d="M 0,0 -0.059,0.082 -43.649,-3.977 17.216,-24.06 Z"
             style="fill:#e60c22;fill-opacity:1;fill-rule:nonzero;stroke:none"
             id="path108" /></g><g
           id="g110"
           transform="translate(298.1227,386.8388)"><path
             d="M 0,0 37.621,-22.738 0,29.84 Z"
             style="fill:#e60c22;fill-opacity:1;fill-rule:nonzero;stroke:none"
             id="path112" /></g><g
           id="g114"
           transform="translate(298.1238,484.7748)"><path
             d="m 0,0 -0.001,-64.985 17.273,24.142 z"
             style="fill:#e60c22;fill-opacity:1;fill-rule:nonzero;stroke:none"
             id="path116" /></g><g
           id="g118"
           transform="translate(333.4005,369.0951)"><path
             d="m 0,0 -34.472,48.177 27.948,-9.222 9.669,-43.35 z m -35.278,17.744 v 29.84 L 2.343,-4.994 Z m 10e-4,97.936 17.273,-40.843 -17.274,-24.143 z M 26.4,70.183 -34.472,50.101 l 7.357,10.282 9.917,13.86 z M -6.218,39.917 -34.164,49.139 3.215,61.471 26.697,69.218 Z m -30.055,10.777 -17.273,24.143 17.273,40.846 z m -10e-4,-28.297 v -4.654 l -37.62,-22.736 37.621,52.577 z m -28.753,16.56 27.948,9.22 -37.617,-52.572 z m -33.224,30.265 60.864,-20.083 -13.807,-4.555 -14.141,-4.665 z m 43.897,5.021 0.059,-0.082 17.216,-24.06 -60.865,20.083 z m 48.816,-35.064 35.588,31.678 -47.145,4.391 -18.222,43.088 -0.448,1.154 -0.468,-1.15 -18.224,-43.092 -45.988,-4.282 -1.184,-0.102 0.9,-0.782 34.728,-30.915 -10.423,-46.865 40.657,24.566 39.677,-23.985 1.031,-0.62 -0.314,1.271 z"
             style="fill:#818383;fill-opacity:1;fill-rule:nonzero;stroke:none"
             id="path120" /></g></g></g></g></svg>
